<?xml version="1.0" standalone="no"?><!DOCTYPE svg PUBLIC "-//W3C//DTD SVG 1.1//EN" "http://www.w3.org/Graphics/SVG/1.1/DTD/svg11.dtd"><svg t="1628333428746" class="icon" viewBox="0 0 1024 1024" version="1.1" xmlns="http://www.w3.org/2000/svg" p-id="6946" xmlns:xlink="http://www.w3.org/1999/xlink" width="200" height="200"><defs><style type="text/css"></style></defs><path d="M 513.564 27.455 C 244.967 27.455 27.1624 245.264 27.1624 513.86 c 0 268.564 217.805 486.413 486.405 486.413 c 268.579 0 486.405 -217.848 486.405 -486.413 C 999.97 245.264 782.143 27.455 513.564 27.455 Z M 716.45 488.465 l 0 58.1794 l -161.374 0 l 0 80.2626 l 161.374 0 l 0 58.9849 l -161.374 0 L 555.076 802.698 l -83.0153 0 l 0 -116.807 L 304.588 685.891 l 0 -58.9849 l 167.472 0 L 472.06 546.644 L 304.588 546.644 l 0 -58.1794 l 142.878 0 L 273.358 225.048 l 93.5783 0 c 81.4222 130.809 130.715 213.864 148.225 248.873 l 1.71955 0 c 5.9534 -14.3778 22.1591 -43.5523 48.7724 -87.3756 l 99.6256 -161.501 l 88.5135 0 l -175.871 263.416 L 716.45 488.461 Z" p-id="6947"></path></svg>